<svg width="66" height="66" fill="none" xmlns="http://www.w3.org/2000/svg"><circle cx="33" cy="33" r="33" fill="#2a1dec"/><path d="M15.536 26.528v4.896h5.76v2.232h-5.76v5.112h6.48V41H12.8V24.296h9.216v2.232h-6.48Zm8.938 7.8c0-1.328.272-2.504.816-3.528.56-1.024 1.312-1.816 2.256-2.376.96-.576 2.024-.864 3.192-.864.864 0 1.712.192 2.544.576.848.368 1.52.864 2.016 1.488V23.24h2.76V41h-2.76v-1.992c-.448.64-1.072 1.168-1.872 1.584-.784.416-1.688.624-2.712.624a6.042 6.042 0 0 1-3.168-.864c-.944-.592-1.696-1.408-2.256-2.448-.544-1.056-.816-2.248-.816-3.576Zm10.824.048c0-.912-.192-1.704-.576-2.376-.368-.672-.856-1.184-1.464-1.536a3.862 3.862 0 0 0-1.968-.528c-.704 0-1.36.176-1.968.528-.608.336-1.104.84-1.488 1.512-.368.656-.552 1.44-.552 2.352 0 .912.184 1.712.552 2.4.384.688.88 1.216 1.488 1.584.624.352 1.28.528 1.968.528.704 0 1.36-.176 1.968-.528.608-.352 1.096-.864 1.464-1.536.384-.688.576-1.488.576-2.4Zm18.33-6.6V41h-2.736v-1.56c-.432.544-1 .976-1.704 1.296a5.402 5.402 0 0 1-2.208.456c-1.04 0-1.976-.216-2.808-.648-.816-.432-1.464-1.072-1.944-1.92-.464-.848-.696-1.872-.696-3.072v-7.776h2.712v7.368c0 1.184.296 2.096.888 2.736.592.624 1.4.936 2.424.936s1.832-.312 2.424-.936c.608-.64.912-1.552.912-2.736v-7.368h2.736Z" fill="#FFFFFF"/></svg>